<?xml version="1.0" encoding="UTF-8" standalone="no"?>
<!-- Created with Inkscape (http://www.inkscape.org/) -->

<svg
   xmlns:dc="http://purl.org/dc/elements/1.1/"
   xmlns:cc="http://creativecommons.org/ns#"
   xmlns:rdf="http://www.w3.org/1999/02/22-rdf-syntax-ns#"
   xmlns:svg="http://www.w3.org/2000/svg"
   xmlns="http://www.w3.org/2000/svg"
   xmlns:sodipodi="http://sodipodi.sourceforge.net/DTD/sodipodi-0.dtd"
   xmlns:inkscape="http://www.inkscape.org/namespaces/inkscape"
   width="259.99103"
   height="38.611946"
   id="svg3067"
   version="1.1"
   inkscape:version="0.48.5 r10040"
   sodipodi:docname="New document 3">
  <defs
     id="defs3069" />
  <sodipodi:namedview
     id="base"
     pagecolor="#ffffff"
     bordercolor="#666666"
     borderopacity="1.0"
     inkscape:pageopacity="0.0"
     inkscape:pageshadow="2"
     inkscape:zoom="0.7"
     inkscape:cx="106.76612"
     inkscape:cy="272.34824"
     inkscape:document-units="px"
     inkscape:current-layer="text3075"
     showgrid="false"
     fit-margin-top="7"
     fit-margin-left="7"
     fit-margin-right="7"
     fit-margin-bottom="7"
     inkscape:window-width="1080"
     inkscape:window-height="1894"
     inkscape:window-x="1080"
     inkscape:window-y="0"
     inkscape:window-maximized="1" />
  <metadata
     id="metadata3072">
    <rdf:RDF>
      <cc:Work
         rdf:about="">
        <dc:format>image/svg+xml</dc:format>
        <dc:type
           rdf:resource="http://purl.org/dc/dcmitype/StillImage" />
        <cc:license
           rdf:resource="" />
        <dc:title></dc:title>
      </cc:Work>
    </rdf:RDF>
  </metadata>
  <g
     inkscape:label="Layer 1"
     inkscape:groupmode="layer"
     id="layer1"
     transform="translate(-8.3538896,-4.772116)">
    <g
       style="font-size:15.76834393px;font-style:normal;font-variant:normal;font-weight:normal;font-stretch:normal;line-height:125%;letter-spacing:0px;word-spacing:0px;fill:#000000;fill-opacity:1;stroke:none;font-family:'IPAPM+Libertine';-inkscape-font-specification:'IPAPM+Libertine'"
       id="text3075">
      <g
         id="g3098"
         transform="matrix(1.7186078,0,0,1.7186078,6.1526528,-6.0043811)">
        <path
           id="path3080"
           style="font-family:IPAGothic;-inkscape-font-specification:IPAGothic"
           d="m 10.181405,13.261613 c 0.390097,0.692954 0.716037,1.360234 0.977822,2.00184 l -1.154908,0.361872 C 9.7066047,14.757869 9.3601326,13.969966 8.9649022,13.261613 l -1.0086197,0 c -0.4157698,0.857208 -0.9880903,1.693873 -1.7169632,2.51 L 5.3538898,15.024772 c 1.1189757,-1.216493 1.9376763,-2.735837 2.4561044,-4.558036 l 1.1241104,0.269478 C 8.7493152,11.32138 8.5645301,11.842371 8.3797488,12.29919 l 4.1345702,0 0,0.962423 -2.332914,0 m 5.997822,0 c 0.364426,0.5441 0.728863,1.154917 1.093313,1.832454 l -1.108711,0.408067 c -0.369582,-0.836657 -0.76225,-1.583497 -1.178006,-2.240521 l -0.962424,0 c -0.390111,0.852075 -0.86234,1.645111 -1.416687,2.37911 L 11.705884,14.93238 c 0.867456,-1.057373 1.5604,-2.522821 2.078834,-4.39635 l 1.101013,0.215583 c -0.143732,0.533836 -0.300287,1.049695 -0.469663,1.547577 l 5.158589,0 0,0.962423 -3.39543,0 m -7.1527297,4.034479 0,3.942086 c 0.6364776,-0.241245 1.3422537,-0.528689 2.1173317,-0.862332 l 0.153987,0.908528 c -1.8067939,0.867465 -3.6033157,1.588641 -5.3895704,2.163528 l -0.4619632,-1.00862 c 0.8828614,-0.261778 1.7195272,-0.531256 2.5100001,-0.808436 l 0,-4.334754 -2.2867178,0 0,-0.962424 5.4588653,0 0,0.962424 -2.1019327,0 m 8.4077307,-1.462884 0,6.983344 c -1.3e-5,0.246381 0.161674,0.369571 0.485061,0.36957 0.384956,10e-7 0.600538,-0.146288 0.646748,-0.438865 0.06671,-0.395234 0.100078,-0.985519 0.100092,-1.770859 l 1.024019,0.361872 c -1.5e-5,0.34904 -0.02311,0.746841 -0.0693,1.193405 -1.5e-5,0.02053 -0.0077,0.118058 -0.0231,0.292576 -0.0051,0.07186 -0.0077,0.123191 -0.0077,0.153988 -0.04621,0.615951 -0.282326,1.011185 -0.708344,1.185705 -0.236128,0.08213 -0.556936,0.12319 -0.962423,0.123191 -0.641628,-1e-6 -1.059961,-0.0693 -1.255,-0.207884 -0.18993,-0.138589 -0.284889,-0.379836 -0.284877,-0.723742 l 0,-6.544479 -3.256841,0 0,2.25592 c -9e-6,1.067652 -0.141164,1.971046 -0.423466,2.710185 -0.410642,1.08818 -1.21651,2.035204 -2.417608,2.841073 L 9.4807611,23.794374 c 1.1754339,-0.744274 1.9274059,-1.568107 2.2559199,-2.471503 0.220709,-0.615948 0.331067,-1.373054 0.331074,-2.271319 l 0,-3.218344 5.366473,0 m -2.024939,6.113313 C 14.685536,20.750552 13.961795,19.790696 13.238062,19.06695 l 0.739141,-0.762239 c 0.852055,0.888 1.604028,1.819625 2.25592,2.794878 l -0.823834,0.846932"
           inkscape:connector-curvature="0" />
        <path
           id="path3082"
           style="font-family:IPAGothic;-inkscape-font-specification:IPAGothic"
           d="m 31.832081,21.369067 c 0.949578,0.749408 2.145548,1.406422 3.587914,1.971043 l -0.75454,1.039417 c -1.432099,-0.621084 -2.635768,-1.357658 -3.611012,-2.209724 -1.206247,1.077915 -2.463812,1.909448 -3.7727,2.494602 l -0.75454,-0.977822 c 1.41668,-0.477362 2.663979,-1.239601 3.741902,-2.286718 -1.000929,-1.062513 -1.781133,-2.356008 -2.340613,-3.880491 l -0.739142,0 0,0.138589 c -0.01541,1.775996 -0.215589,3.238878 -0.600552,4.38865 -0.277184,0.836667 -0.72888,1.670767 -1.355092,2.502301 l -0.862331,-0.816135 c 0.821263,-1.062515 1.334555,-2.219988 1.539877,-3.472424 0.128318,-0.769934 0.192479,-1.768287 0.192485,-2.995061 l 0,-4.619632 3.818896,0 0,-2.302117 1.085613,0 0,2.302117 3.564816,0 0.646749,0.585153 c -0.292591,0.893139 -0.698092,1.776001 -1.216503,2.648589 L 32.96389,15.455938 c 0.364425,-0.569746 0.664701,-1.170297 0.900829,-1.801656 l -2.856473,0 0,2.88727 2.756381,0 0.646748,0.615951 c -0.74942,1.770863 -1.609184,3.174716 -2.579294,4.211564 m -0.823835,-0.74684 c 0.893118,-1.077911 1.555264,-2.112194 1.986442,-3.102853 l -3.926687,0 c 0.523549,1.252438 1.170297,2.286721 1.940245,3.102853 m -1.085613,-6.967945 -2.733283,0 0,2.88727 2.733283,0 0,-2.88727 m -8.515522,9.762822 c 0.990652,-1.252432 1.906879,-2.823106 2.748681,-4.712025 l 0.816135,0.87773 c -0.769942,1.806792 -1.647672,3.410829 -2.63319,4.812117 l -0.931626,-0.977822 m 2.302117,-5.866933 c -0.698081,-0.790463 -1.485984,-1.48854 -2.363712,-2.094233 l 0.739141,-0.885429 c 0.887993,0.595427 1.698995,1.283238 2.433006,2.063435 l -0.808435,0.916227 m 0.446564,-3.64181 c -0.78534,-0.846922 -1.547579,-1.534733 -2.286718,-2.063435 l 0.75454,-0.88543 c 0.790467,0.533836 1.562972,1.201116 2.317516,2.001841 l -0.785338,0.947024"
           inkscape:connector-curvature="0" />
        <path
           id="path3084"
           style="font-family:IPAGothic;-inkscape-font-specification:IPAGothic"
           d="m 44.859443,15.594527 c 1.021442,3.259412 3.056645,5.646219 6.105614,7.16043 l -0.88543,1.13181 c -2.884715,-1.6682 -4.84549,-4.021643 -5.882331,-7.060338 -0.60056,3.34667 -2.561335,5.831003 -5.882332,7.453006 l -0.885429,-1.085613 c 1.91971,-0.708343 3.423656,-1.891481 4.51184,-3.549418 0.723736,-1.118972 1.180566,-2.46893 1.370491,-4.049877 l -5.959325,0 0,-1.101012 6.02092,0 0,-3.757301 1.247301,0 0,3.757301 6.136411,0 0,1.101012 -5.89773,0"
           inkscape:connector-curvature="0" />
        <path
           id="path3086"
           style="font-family:IPAGothic;-inkscape-font-specification:IPAGothic"
           d="m 56.139043,13.454098 -0.0462,-0.09239 C 55.825927,12.663641 55.46149,11.947599 54.99953,11.213579 l 1.077914,-0.469663 c 0.436294,0.590299 0.862327,1.35767 1.278099,2.302117 l -1.077915,0.408068 5.366473,0 c 0.687801,-0.94958 1.272954,-1.922269 1.75546,-2.918068 l 1.193405,0.538957 c -0.518438,0.867476 -1.065093,1.660512 -1.639969,2.379111 l 3.26454,0 0,3.38773 -1.13181,0 0,-2.409908 -10.509663,0 0,2.409908 -1.13181,0 0,-3.38773 2.694785,0 m 4.280859,5.327975 0,0.585154 6.490583,0 0,1.008619 -6.413589,0 0,2.833375 c -8e-6,0.852064 -0.526133,1.278097 -1.578374,1.278098 -0.841806,-10e-7 -1.629709,-0.05133 -2.363712,-0.153988 l -0.223282,-1.216503 c 0.810997,0.169387 1.5989,0.25408 2.363712,0.25408 0.410627,0 0.615943,-0.195051 0.615951,-0.585154 l 0,-2.409908 -6.590675,0 0,-1.008619 6.52908,0 0,-1.13951 0.07699,-0.0308 c 0.918786,-0.349033 1.835012,-0.80073 2.748682,-1.355092 l -6.52908,0 0,-0.993221 8.099754,0 0.646749,0.63135 c -1.113856,0.841805 -2.404785,1.609177 -3.872792,2.302116 M 59.372786,13.400202 C 59.064803,12.51735 58.697799,11.719181 58.271774,11.005693 l 1.070214,-0.454264 c 0.441424,0.667292 0.846925,1.470594 1.216503,2.409908 l -1.185705,0.438865"
           inkscape:connector-curvature="0" />
        <path
           inkscape:connector-curvature="0"
           id="path3088"
           style="font-family:IPAGothic;-inkscape-font-specification:IPAGothic"
           d="m 79.632165,11.92192 0,-1.578375 1.054816,0 0,1.578375 4.003681,0 0,0.854632 -4.003681,0 0,0.939325 3.549417,0 0,0.839233 -3.549417,0 0,0.993221 4.511841,0 0,0.885429 -9.893712,0 0,-0.885429 4.327055,0 0,-0.993221 -3.310736,0 0,-0.839233 3.310736,0 0,-0.939325 -3.849693,0 0,-0.854632 3.849693,0 m 4.188467,5.404969 0,6.013221 c -1.4e-5,0.723742 -0.431179,1.085613 -1.293497,1.085614 -0.36445,-10e-7 -1.047128,-0.02567 -2.048037,-0.07699 l -0.169387,-1.124111 c 0.687801,0.107792 1.344815,0.161687 1.971043,0.161687 0.323362,0 0.485049,-0.153987 0.485062,-0.461963 l 0,-1.054816 -4.919909,0 0,2.663988 -1.054815,0 0,-7.206626 7.02954,0 m -5.974725,0.854632 0,1.00092 4.919909,0 0,-1.00092 -4.919909,0 m 0,1.817055 0,1.031718 4.919909,0 0,-1.031718 -4.919909,0 m -6.952546,-2.209724 c 0.318241,-1.077907 0.518425,-2.492026 0.600552,-4.242362 l 0.962424,0.207884 c -0.06673,1.81193 -0.261781,3.328708 -0.585154,4.550337 l -0.977822,-0.515859 m 4.180767,-2.271319 c -0.236119,-0.841791 -0.505597,-1.573232 -0.808435,-2.194325 l 0.839233,-0.392669 c 0.359299,0.610828 0.659575,1.298639 0.900828,2.063436 l -0.931626,0.523558 m -2.055736,-5.173988 1.085614,0 0,14.18997 -1.085614,0 0,-14.18997" />
        <path
           inkscape:connector-curvature="0"
           id="path3090"
           style="font-family:IPAGothic;-inkscape-font-specification:IPAGothic"
           d="m 92.805817,15.833208 c -0.230988,0.811009 -0.487634,1.534751 -0.769939,2.171227 l 1.847853,0 0,0.947025 -2.871871,0 0,1.686165 2.679386,0 0,0.947025 -2.679386,0 0,2.948865 -1.085614,0 0,-2.948865 -2.586994,0 0,-0.947025 2.586994,0 0,-1.686165 -2.794877,0 0,-0.947025 1.701564,0 c -0.215585,-0.980382 -0.415769,-1.704124 -0.600552,-2.171227 l -1.447485,0 0,-0.947024 3.14135,0 0,-1.63997 -2.448405,0 0,-0.947024 2.448405,0 0,-1.955645 1.085614,0 0,1.955645 2.5023,0 0,0.947024 -2.5023,0 0,1.63997 2.856472,0 0,0.947024 -1.062515,0 m -1.085614,0 -2.440705,0 c 0.261775,0.780211 0.456826,1.503953 0.585153,2.171227 l 1.147209,0 c 0.297704,-0.662141 0.533818,-1.385883 0.708343,-2.171227 m 8.338437,-4.696626 0,3.449325 c -2e-5,0.446573 -0.08984,0.749416 -0.26948,0.908528 -0.179665,0.148863 -0.521005,0.22329 -1.024018,0.223282 -0.533836,8e-6 -1.121556,-0.03079 -1.763159,-0.09239 l -0.13089,-1.054816 c 0.615939,0.0924 1.131798,0.138597 1.547577,0.138589 0.390089,8e-6 0.58514,-0.187343 0.585153,-0.562056 l 0,-2.032638 -3.580215,0 0,4.565737 4.411749,0 0.585153,0.469662 c -0.28233,1.560414 -0.795617,2.992498 -1.539877,4.296258 0.554342,0.775073 1.314017,1.442352 2.279017,2.001841 l -0.67755,1.008619 c -0.882871,-0.651882 -1.616879,-1.342259 -2.202019,-2.071135 -0.615963,0.852066 -1.311473,1.609171 -2.086534,2.271319 l -0.708344,-0.862331 c 0.810992,-0.621084 1.527034,-1.378189 2.148129,-2.271319 -0.867475,-1.2165 -1.468026,-2.509996 -1.801656,-3.880491 l -0.408068,0 0,6.890951 -1.054816,0 0,-13.396933 5.689848,0 m -3.27994,6.505982 c 0.251503,0.913665 0.718598,1.896619 1.401289,2.948865 0.503014,-0.923923 0.857185,-1.906877 1.062515,-2.948865 l -2.463804,0" />
        <path
           inkscape:connector-curvature="0"
           id="path3092"
           style="font-family:IPAGothic;-inkscape-font-specification:IPAGothic"
           d="m 105.5868,17.365386 c -0.59029,1.678471 -1.36279,3.154185 -2.31752,4.427147 l -0.67754,-1.070214 c 1.24216,-1.524475 2.17122,-3.190107 2.78718,-4.996902 l -2.5947,0 0,-0.993221 2.80258,0 0,-2.125031 c -0.56976,0.143733 -1.29093,0.284888 -2.16353,0.423466 l -0.54665,-0.916227 c 1.99157,-0.302831 3.7034,-0.775059 5.13549,-1.416687 l 0.85463,0.916227 c -0.59029,0.241259 -1.32174,0.482506 -2.19433,0.723743 l 0,2.394509 2.43301,0 0,0.993221 -2.43301,0 0,1.116411 c 0.7648,0.585159 1.54757,1.296068 2.34832,2.13273 l -0.72375,1.054816 c -0.45683,-0.651878 -0.99836,-1.298625 -1.62457,-1.940246 l 0,6.444387 -1.08561,0 0,-7.168129 m 9.11607,1.686166 2.07884,-0.400368 0.10779,1.077914 -2.14043,0.408067 0,4.319356 -1.11641,0 0,-4.096074 -4.87371,0.939326 -0.17709,-1.070215 5.0046,-0.962423 0,-8.592516 1.11641,0 0,8.376933 m -2.58699,-4.088375 c -0.77508,-0.939315 -1.58608,-1.732351 -2.43301,-2.37911 l 0.73914,-0.785338 c 0.99065,0.785349 1.81705,1.568119 2.47921,2.348313 l -0.78534,0.816135 m -0.36957,3.472424 c -0.75968,-0.939319 -1.55272,-1.740055 -2.37911,-2.402209 l 0.69294,-0.75454 c 0.96498,0.754548 1.78112,1.527052 2.44841,2.317516 l -0.76224,0.839233" />
        <path
           inkscape:connector-curvature="0"
           id="path3094"
           style="font-family:IPAGothic;-inkscape-font-specification:IPAGothic"
           d="m 121.80171,13.454098 -0.0462,-0.09239 c -0.26692,-0.698067 -0.63136,-1.414109 -1.09332,-2.148129 l 1.07792,-0.469663 c 0.43629,0.590299 0.86232,1.35767 1.2781,2.302117 l -1.07792,0.408068 5.36647,0 c 0.68781,-0.94958 1.27296,-1.922269 1.75546,-2.918068 l 1.19341,0.538957 c -0.51844,0.867476 -1.06509,1.660512 -1.63997,2.379111 l 3.26454,0 0,3.38773 -1.13181,0 0,-2.409908 -10.50966,0 0,2.409908 -1.13181,0 0,-3.38773 2.69478,0 m 4.28086,5.327975 0,0.585154 6.49058,0 0,1.008619 -6.41358,0 0,2.833375 c -1e-5,0.852064 -0.52614,1.278097 -1.57838,1.278098 -0.8418,-10e-7 -1.62971,-0.05133 -2.36371,-0.153988 l -0.22328,-1.216503 c 0.81099,0.169387 1.5989,0.25408 2.36371,0.25408 0.41063,0 0.61594,-0.195051 0.61595,-0.585154 l 0,-2.409908 -6.59067,0 0,-1.008619 6.52908,0 0,-1.13951 0.077,-0.0308 c 0.91878,-0.349033 1.83501,-0.80073 2.74868,-1.355092 l -6.52908,0 0,-0.993221 8.09975,0 0.64675,0.63135 c -1.11385,0.841805 -2.40478,1.609177 -3.87279,2.302116 m -1.04711,-5.381871 c -0.30799,-0.882852 -0.67499,-1.681021 -1.10102,-2.394509 l 1.07022,-0.454264 c 0.44142,0.667292 0.84692,1.470594 1.2165,2.409908 l -1.1857,0.438865" />
        <path
           inkscape:connector-curvature="0"
           id="path3096"
           style="font-family:IPAGothic;-inkscape-font-specification:IPAGothic"
           d="m 137.24668,15.455938 c -0.69295,0.97013 -1.56554,1.809362 -2.61779,2.5177 l -0.63135,-0.816135 c 1.14464,-0.677539 2.0968,-1.519338 2.85647,-2.525399 l 0.077,-0.09239 -2.66398,0 0,-0.916227 2.97966,0 0,-3.279939 0.99322,0 0,3.279939 2.78718,0 0,0.916227 -2.78718,0 0,0.454264 c 0.98552,0.456838 1.87094,0.97783 2.65629,1.562975 l -0.60825,0.947025 c -0.56463,-0.564615 -1.24731,-1.101005 -2.04804,-1.609172 l 0,1.655368 -0.99322,0 0,-2.094233 m 7.4915,-1.940245 2.69479,0 0,7.961166 -5.68985,0 0,-7.961166 2.01724,0 c 0.10778,-0.426023 0.21814,-0.947014 0.33107,-1.562976 l -3.11055,0 0,-0.977822 7.22203,0 0,0.977822 -3.01046,0 c -0.005,0.03594 -0.0308,0.136034 -0.077,0.300276 -0.0821,0.374715 -0.20789,0.795614 -0.37727,1.2627 m 1.68617,0.916227 -3.67261,0 0,1.416687 3.67261,0 0,-1.416687 m -3.67261,2.317515 0,1.416687 3.67261,0 0,-1.416687 -3.67261,0 m 0,2.302117 0,1.50908 3.67261,0 0,-1.50908 -3.67261,0 m -5.52046,0.215583 0,-1.239602 1.03942,0 0,1.239602 2.66399,0 0,0.947024 -2.69479,0 c -0.0154,0.210453 -0.0488,0.395238 -0.10009,0.554356 0.83666,0.554358 1.66306,1.231903 2.4792,2.032638 l -0.79304,0.846933 c -0.62109,-0.759673 -1.27553,-1.421819 -1.96334,-1.986442 -0.49276,1.226769 -1.43465,2.225122 -2.82567,2.995061 l -0.72375,-0.846932 c 1.69387,-0.805869 2.65116,-2.004406 2.87187,-3.595614 l -2.91806,0 0,-0.947024 2.96426,0 m -1.65537,-5.866933 c -0.31311,-0.867453 -0.63905,-1.560398 -0.97782,-2.078835 l 0.94703,-0.423466 c 0.33877,0.544102 0.6801,1.242179 1.02401,2.094233 l -0.99322,0.408068 m 3.21065,-0.361871 c 0.42089,-0.723732 0.73143,-1.447473 0.93162,-2.171227 l 1.02402,0.300276 c -0.28745,0.76995 -0.65959,1.514223 -1.11641,2.232822 l -0.83923,-0.361871 m 8.7542,11.433589 c -0.67243,-0.769939 -1.51423,-1.547576 -2.5254,-2.332914 l 0.77764,-0.569755 c 0.85718,0.564623 1.75544,1.280665 2.69478,2.148129 l -0.94702,0.75454 m -7.25282,-0.600552 c 1.11383,-0.569755 2.07626,-1.331993 2.88727,-2.286718 l 0.87773,0.600552 c -0.83155,0.975256 -1.8299,1.801656 -2.99506,2.479203 l -0.76994,-0.793037" />
      </g>
    </g>
  </g>
</svg>
