<?xml version="1.0" encoding="UTF-8" standalone="no"?>
<!-- Created with Inkscape (http://www.inkscape.org/) -->

<svg
   xmlns:dc="http://purl.org/dc/elements/1.1/"
   xmlns:cc="http://creativecommons.org/ns#"
   xmlns:rdf="http://www.w3.org/1999/02/22-rdf-syntax-ns#"
   xmlns:svg="http://www.w3.org/2000/svg"
   xmlns="http://www.w3.org/2000/svg"
   xmlns:sodipodi="http://sodipodi.sourceforge.net/DTD/sodipodi-0.dtd"
   xmlns:inkscape="http://www.inkscape.org/namespaces/inkscape"
   width="217.649"
   height="29.445715"
   id="svg2"
   version="1.1"
   inkscape:version="0.48.5 r10040"
   sodipodi:docname="New document 1">
  <defs
     id="defs4" />
  <sodipodi:namedview
     id="base"
     pagecolor="#ffffff"
     bordercolor="#666666"
     borderopacity="1.0"
     inkscape:pageopacity="0.0"
     inkscape:pageshadow="2"
     inkscape:zoom="2.8"
     inkscape:cx="127.752"
     inkscape:cy="-65.838243"
     inkscape:document-units="px"
     inkscape:current-layer="layer1"
     showgrid="false"
     fit-margin-top="7"
     fit-margin-left="7"
     fit-margin-right="7"
     fit-margin-bottom="7"
     inkscape:window-width="1080"
     inkscape:window-height="1894"
     inkscape:window-x="1080"
     inkscape:window-y="0"
     inkscape:window-maximized="1" />
  <metadata
     id="metadata7">
    <rdf:RDF>
      <cc:Work
         rdf:about="">
        <dc:format>image/svg+xml</dc:format>
        <dc:type
           rdf:resource="http://purl.org/dc/dcmitype/StillImage" />
        <dc:title></dc:title>
      </cc:Work>
    </rdf:RDF>
  </metadata>
  <g
     inkscape:label="Layer 1"
     inkscape:groupmode="layer"
     id="layer1"
     transform="translate(-7.125982,-7.16374)">
    <g
       style="font-size:16.60829544px;font-style:normal;font-variant:normal;font-weight:normal;font-stretch:normal;line-height:125%;letter-spacing:0px;word-spacing:0px;fill:#000000;fill-opacity:1;stroke:none;font-family:'IPAPM+Libertine';-inkscape-font-specification:'IPAPM+Libertine'"
       id="text2989"
       transform="translate(0,1.4732144)">
      <path
         d="m 22.313872,24.626966 c -0.58129,0.282341 -1.478139,0.465032 -2.358378,0.465032 -2.723758,0 -4.301548,-1.760482 -4.301548,-4.500848 0,-2.939665 1.743873,-4.617106 4.367981,-4.617106 0.930064,0 1.710655,0.1993 2.258728,0.465032 l 0.348775,-1.179189 c -0.381991,-0.199299 -1.262232,-0.498248 -2.657328,-0.498248 -3.47113,0 -5.84612,2.374989 -5.84612,5.879336 0,3.67043 2.37499,5.663429 5.530563,5.663429 1.361879,0 2.424811,-0.265733 2.956276,-0.531466 l -0.298949,-1.145972"
         style="letter-spacing:-0.23999999px;font-family:Myriad Pro;-inkscape-font-specification:Myriad Pro"
         id="path2994"
         inkscape:connector-curvature="0" />
      <path
         d="m 27.344671,17.917215 c -2.225509,0 -3.985991,1.57779 -3.985991,4.268332 0,2.541066 1.67744,4.135465 3.853125,4.135465 1.943168,0 4.002599,-1.29545 4.002599,-4.268332 0,-2.458025 -1.561182,-4.135465 -3.869733,-4.135465 m -0.03322,1.096147 c 1.727261,0 2.408203,1.727264 2.408203,3.089143 0,1.810303 -1.046324,3.12236 -2.441419,3.12236 -1.428312,0 -2.44142,-1.328666 -2.44142,-3.089143 0,-1.527962 0.747375,-3.12236 2.474636,-3.12236"
         style="letter-spacing:-0.23999999px;font-family:Myriad Pro;-inkscape-font-specification:Myriad Pro"
         id="path2996"
         inkscape:connector-curvature="0" />
      <path
         d="m 32.815071,26.138321 1.46153,0 0,-11.79189 -1.46153,0 0,11.79189"
         style="letter-spacing:-0.23999999px;font-family:Myriad Pro;-inkscape-font-specification:Myriad Pro"
         id="path2998"
         inkscape:connector-curvature="0" />
      <path
         d="m 36.500078,26.138321 1.46153,0 0,-11.79189 -1.46153,0 0,11.79189"
         style="letter-spacing:-0.23999999px;font-family:Myriad Pro;-inkscape-font-specification:Myriad Pro"
         id="path3000"
         inkscape:connector-curvature="0" />
      <path
         d="m 46.645712,22.384846 c 0.01661,-0.149474 0.04982,-0.381991 0.04982,-0.68094 0,-1.478137 -0.697552,-3.786691 -3.32166,-3.786691 -2.341767,0 -3.770083,1.909956 -3.770083,4.334765 0,2.424808 1.478141,4.052424 3.952775,4.052424 1.278837,0 2.159079,-0.265733 2.673935,-0.498249 L 45.98138,24.759832 c -0.548073,0.232516 -1.17919,0.415208 -2.225512,0.415208 -1.461528,0 -2.72376,-0.813809 -2.756977,-2.790194 l 5.646821,0 m -5.630213,-1.046322 c 0.116258,-1.013105 0.763984,-2.374987 2.24212,-2.374987 1.64422,0 2.042821,1.444923 2.026212,2.374987 l -4.268332,0"
         style="letter-spacing:-0.23999999px;font-family:Myriad Pro;-inkscape-font-specification:Myriad Pro"
         id="path3002"
         inkscape:connector-curvature="0" />
      <path
         d="m 53.928489,18.099906 -0.06643,1.212405 -0.03322,0 c -0.348774,-0.664331 -1.112757,-1.395096 -2.507853,-1.395096 -1.843519,0 -3.620608,1.544574 -3.620608,4.268332 0,2.225509 1.428315,3.919557 3.421309,3.919557 1.24562,0 2.109254,-0.597899 2.557677,-1.345272 l 0.03322,0 0,0.896848 c 0,2.02621 -1.096149,2.806802 -2.590894,2.806802 -0.996497,0 -1.826913,-0.298949 -2.358378,-0.631115 l -0.365383,1.112756 c 0.647723,0.431815 1.710655,0.664332 2.673936,0.664332 1.013105,0 2.142471,-0.232517 2.92306,-0.963281 0.780589,-0.697548 1.145972,-1.826915 1.145972,-3.670434 l 0,-4.666931 c 0,-0.979888 0.03322,-1.627613 0.06643,-2.208903 l -1.278839,0 m -0.232516,4.617106 c 0,0.249124 -0.03322,0.531466 -0.116258,0.78059 -0.315557,0.930064 -1.129365,1.494747 -2.026212,1.494747 -1.577786,0 -2.374986,-1.312057 -2.374986,-2.889844 0,-1.860127 0.996499,-3.039318 2.391595,-3.039318 1.062929,0 1.777087,0.697549 2.04282,1.544572 0.06643,0.199299 0.08304,0.415207 0.08304,0.664331 l 0,1.444922"
         style="letter-spacing:-0.23999999px;font-family:Myriad Pro;-inkscape-font-specification:Myriad Pro"
         id="path3004"
         inkscape:connector-curvature="0" />
      <path
         d="m 63.779588,22.384846 c 0.01661,-0.149474 0.04983,-0.381991 0.04983,-0.68094 0,-1.478137 -0.697551,-3.786691 -3.321659,-3.786691 -2.341767,0 -3.770083,1.909956 -3.770083,4.334765 0,2.424808 1.478141,4.052424 3.952774,4.052424 1.278838,0 2.159079,-0.265733 2.673936,-0.498249 l -0.249124,-1.046323 c -0.548074,0.232516 -1.17919,0.415208 -2.225512,0.415208 -1.461529,0 -2.72376,-0.813809 -2.756977,-2.790194 l 5.64682,0 m -5.630212,-1.046322 c 0.116258,-1.013105 0.763983,-2.374987 2.24212,-2.374987 1.64422,0 2.04282,1.444923 2.026212,2.374987 l -4.268332,0"
         style="letter-spacing:-0.23999999px;font-family:Myriad Pro;-inkscape-font-specification:Myriad Pro"
         id="path3006"
         inkscape:connector-curvature="0" />
      <path
         d="m 72.116,17.917215 c -2.225509,0 -3.985991,1.57779 -3.985991,4.268332 0,2.541066 1.67744,4.135465 3.853125,4.135465 1.943168,0 4.002599,-1.29545 4.002599,-4.268332 0,-2.458025 -1.561182,-4.135465 -3.869733,-4.135465 m -0.03322,1.096147 c 1.727261,0 2.408203,1.727264 2.408203,3.089143 0,1.810303 -1.046324,3.12236 -2.441419,3.12236 -1.428312,0 -2.44142,-1.328666 -2.44142,-3.089143 0,-1.527962 0.747375,-3.12236 2.474636,-3.12236"
         style="letter-spacing:-0.23999999px;font-family:Myriad Pro;-inkscape-font-specification:Myriad Pro"
         id="path3008"
         inkscape:connector-curvature="0" />
      <path
         d="m 79.180795,26.138321 0,-6.925659 1.94317,0 0,-1.112756 -1.94317,0 0,-0.431816 c 0,-1.229012 0.315559,-2.325161 1.56118,-2.325161 0.415207,0 0.714157,0.08304 0.930064,0.182691 l 0.1993,-1.129364 c -0.282341,-0.116258 -0.730766,-0.232516 -1.245622,-0.232516 -0.68094,0 -1.411706,0.215908 -1.959779,0.747373 -0.68094,0.647723 -0.930065,1.677439 -0.930065,2.806802 l 0,0.381991 -1.129364,0 0,1.112756 1.129364,0 0,6.925659 1.444922,0"
         style="letter-spacing:-0.23999999px;font-family:Myriad Pro;-inkscape-font-specification:Myriad Pro"
         id="path3010"
         inkscape:connector-curvature="0" />
      <path
         d="m 85.557686,14.94433 0,11.193991 1.444922,0 0,-11.193991 -1.444922,0"
         style="letter-spacing:-0.23999999px;font-family:Myriad Pro;-inkscape-font-specification:Myriad Pro"
         id="path3012"
         inkscape:connector-curvature="0" />
      <path
         d="m 89.387493,26.138321 1.46153,0 0,-4.833014 c 0,-0.249124 0.03322,-0.498249 0.09965,-0.68094 0.249124,-0.813806 0.996499,-1.494747 1.959779,-1.494747 1.378487,0 1.860129,1.079541 1.860129,2.374986 l 0,4.633715 1.46153,0 0,-4.799797 c 0,-2.756975 -1.727264,-3.421309 -2.840018,-3.421309 -1.328663,0 -2.258729,0.747374 -2.657328,1.511355 l -0.03322,0 -0.08304,-1.328664 -1.295447,0 c 0.04982,0.664331 0.06643,1.345273 0.06643,2.175687 l 0,5.862728"
         style="letter-spacing:-0.23999999px;font-family:Myriad Pro;-inkscape-font-specification:Myriad Pro"
         id="path3014"
         inkscape:connector-curvature="0" />
      <path
         d="m 99.954309,26.138321 0,-6.925659 1.943171,0 0,-1.112756 -1.943171,0 0,-0.431816 c 0,-1.229012 0.315561,-2.325161 1.561181,-2.325161 0.41521,0 0.71416,0.08304 0.93006,0.182691 l 0.1993,-1.129364 c -0.28234,-0.116258 -0.73076,-0.232516 -1.24562,-0.232516 -0.68094,0 -1.411705,0.215908 -1.959779,0.747373 -0.680939,0.647723 -0.930064,1.677439 -0.930064,2.806802 l 0,0.381991 -1.129364,0 0,1.112756 1.129364,0 0,6.925659 1.444922,0"
         style="letter-spacing:-0.23999999px;font-family:Myriad Pro;-inkscape-font-specification:Myriad Pro"
         id="path3016"
         inkscape:connector-curvature="0" />
      <path
         d="m 106.16326,17.917215 c -2.22551,0 -3.98599,1.57779 -3.98599,4.268332 0,2.541066 1.67744,4.135465 3.85312,4.135465 1.94317,0 4.0026,-1.29545 4.0026,-4.268332 0,-2.458025 -1.56118,-4.135465 -3.86973,-4.135465 m -0.0332,1.096147 c 1.72726,0 2.4082,1.727264 2.4082,3.089143 0,1.810303 -1.04632,3.12236 -2.44142,3.12236 -1.42831,0 -2.44142,-1.328666 -2.44142,-3.089143 0,-1.527962 0.74738,-3.12236 2.47464,-3.12236"
         style="letter-spacing:-0.23999999px;font-family:Myriad Pro;-inkscape-font-specification:Myriad Pro"
         id="path3018"
         inkscape:connector-curvature="0" />
      <path
         d="m 111.63365,26.138321 1.44493,0 0,-4.28494 c 0,-0.249124 0.0332,-0.481641 0.0664,-0.68094 0.1993,-1.096147 0.93007,-1.876738 1.95978,-1.876738 0.1993,0 0.34877,0.01661 0.49825,0.04983 l 0,-1.378488 c -0.13287,-0.03322 -0.24913,-0.04983 -0.41521,-0.04983 -0.97989,0 -1.86013,0.680941 -2.22551,1.760479 l -0.0664,0 -0.0498,-1.577788 -1.27884,0 c 0.0498,0.747372 0.0664,1.561181 0.0664,2.507853 l 0,5.530562"
         style="letter-spacing:-0.23999999px;font-family:Myriad Pro;-inkscape-font-specification:Myriad Pro"
         id="path3020"
         inkscape:connector-curvature="0" />
      <path
         d="m 116.87569,26.138321 1.42831,0 0,-4.849622 c 0,-0.249125 0.0332,-0.498249 0.11626,-0.714157 0.23252,-0.730764 0.89685,-1.46153 1.81031,-1.46153 1.11275,0 1.67743,0.930066 1.67743,2.208903 l 0,4.816406 1.42832,0 0,-4.96588 c 0,-0.265733 0.0498,-0.531466 0.11625,-0.730765 0.24913,-0.714156 0.89685,-1.328664 1.72727,-1.328664 1.17919,0 1.74387,0.930066 1.74387,2.474636 l 0,4.550673 1.42831,0 0,-4.733364 c 0,-2.790191 -1.57779,-3.487742 -2.64072,-3.487742 -0.76398,0 -1.29544,0.1993 -1.77708,0.564682 -0.33217,0.249124 -0.64773,0.597899 -0.89685,1.046322 l -0.0332,0 c -0.34877,-0.946672 -1.17919,-1.611004 -2.27534,-1.611004 -1.32866,0 -2.07603,0.714157 -2.52446,1.478138 l -0.0498,0 -0.0664,-1.295447 -1.27884,0 c 0.0498,0.664331 0.0664,1.345273 0.0664,2.175687 l 0,5.862728"
         style="letter-spacing:-0.23999999px;font-family:Myriad Pro;-inkscape-font-specification:Myriad Pro"
         id="path3022"
         inkscape:connector-curvature="0" />
      <path
         d="m 136.26644,26.138321 c -0.0996,-0.548073 -0.13287,-1.229015 -0.13287,-1.926562 l 0,-3.006102 c 0,-1.611003 -0.5979,-3.288442 -3.05592,-3.288442 -1.01311,0 -1.97639,0.282341 -2.64072,0.714156 l 0.33216,0.963282 c 0.56468,-0.365383 1.34527,-0.597899 2.09265,-0.597899 1.64422,0 1.82691,1.195798 1.82691,1.860129 l 0,0.166083 c -3.10575,-0.01661 -4.83301,1.046324 -4.83301,2.989493 0,1.16258 0.83041,2.308553 2.45802,2.308553 1.14597,0 2.00961,-0.564683 2.45803,-1.195797 l 0.0498,0 0.11625,1.013106 1.32867,0 m -1.54457,-2.707152 c 0,0.149474 -0.0332,0.315558 -0.083,0.465032 -0.23251,0.680939 -0.89684,1.345272 -1.94317,1.345272 -0.74737,0 -1.37848,-0.448425 -1.37848,-1.395097 0,-1.561178 1.8103,-1.843521 3.4047,-1.810304 l 0,1.395097"
         style="letter-spacing:-0.23999999px;font-family:Myriad Pro;-inkscape-font-specification:Myriad Pro"
         id="path3024"
         inkscape:connector-curvature="0" />
      <path
         d="m 138.52625,16.173344 0,1.926562 -1.24563,0 0,1.112756 1.24563,0 0,4.38459 c 0,0.946672 0.14947,1.66083 0.56468,2.092645 0.34877,0.398599 0.89685,0.614507 1.57779,0.614507 0.56468,0 1.0131,-0.08304 1.29544,-0.1993 l -0.0664,-1.096147 c -0.18269,0.04983 -0.46503,0.09965 -0.84702,0.09965 -0.81381,0 -1.09615,-0.564683 -1.09615,-1.56118 l 0,-4.334765 2.09264,0 0,-1.112756 -2.09264,0 0,-2.308553 -1.42831,0.381991"
         style="letter-spacing:-0.23999999px;font-family:Myriad Pro;-inkscape-font-specification:Myriad Pro"
         id="path3026"
         inkscape:connector-curvature="0" />
      <path
         d="m 144.89764,26.138321 0,-8.038415 -1.46153,0 0,8.038415 1.46153,0 m -0.73077,-11.210599 c -0.53146,0 -0.91345,0.398599 -0.91345,0.913456 0,0.498248 0.36538,0.896848 0.88024,0.896848 0.58129,0 0.94667,-0.3986 0.93006,-0.896848 0,-0.514857 -0.34877,-0.913456 -0.89685,-0.913456"
         style="letter-spacing:-0.23999999px;font-family:Myriad Pro;-inkscape-font-specification:Myriad Pro"
         id="path3028"
         inkscape:connector-curvature="0" />
      <path
         d="m 150.49338,17.917215 c -2.22551,0 -3.98599,1.57779 -3.98599,4.268332 0,2.541066 1.67744,4.135465 3.85312,4.135465 1.94317,0 4.0026,-1.29545 4.0026,-4.268332 0,-2.458025 -1.56118,-4.135465 -3.86973,-4.135465 m -0.0332,1.096147 c 1.72726,0 2.40821,1.727264 2.40821,3.089143 0,1.810303 -1.04633,3.12236 -2.44142,3.12236 -1.42831,0 -2.44142,-1.328666 -2.44142,-3.089143 0,-1.527962 0.74737,-3.12236 2.47463,-3.12236"
         style="letter-spacing:-0.23999999px;font-family:Myriad Pro;-inkscape-font-specification:Myriad Pro"
         id="path3030"
         inkscape:connector-curvature="0" />
      <path
         d="m 155.96379,26.138321 1.46153,0 0,-4.833014 c 0,-0.249124 0.0332,-0.498249 0.0996,-0.68094 0.24912,-0.813806 0.99649,-1.494747 1.95978,-1.494747 1.37848,0 1.86012,1.079541 1.86012,2.374986 l 0,4.633715 1.46153,0 0,-4.799797 c 0,-2.756975 -1.72726,-3.421309 -2.84001,-3.421309 -1.32867,0 -2.25873,0.747374 -2.65733,1.511355 l -0.0332,0 -0.083,-1.328664 -1.29545,0 c 0.0498,0.664331 0.0664,1.345273 0.0664,2.175687 l 0,5.862728"
         style="letter-spacing:-0.23999999px;font-family:Myriad Pro;-inkscape-font-specification:Myriad Pro"
         id="path3032"
         inkscape:connector-curvature="0" />
      <path
         d="m 167.71709,25.590247 c 0.5979,0.398599 1.77709,0.714157 2.85662,0.714157 2.64072,0 3.91956,-1.494748 3.91956,-3.222009 0,-1.64422 -0.96328,-2.557679 -2.85662,-3.288443 -1.54457,-0.597898 -2.22552,-1.112757 -2.22552,-2.159078 0,-0.763981 0.5813,-1.677438 2.10926,-1.677438 1.0131,0 1.76048,0.332166 2.12586,0.531465 l 0.3986,-1.179189 c -0.49825,-0.28234 -1.32867,-0.548073 -2.47464,-0.548073 -2.17568,0 -3.62061,1.295448 -3.62061,3.039318 0,1.577786 1.12937,2.524461 2.95628,3.172184 1.51135,0.58129 2.10925,1.17919 2.10925,2.225512 0,1.129363 -0.86363,1.909954 -2.34177,1.909954 -0.99649,0 -1.94317,-0.332167 -2.59089,-0.730765 l -0.36538,1.212405"
         style="letter-spacing:-0.23999999px;font-family:Myriad Pro;-inkscape-font-specification:Myriad Pro"
         id="path3034"
         inkscape:connector-curvature="0" />
      <path
         d="m 181.74439,24.743224 c -0.41521,0.182691 -0.96328,0.398599 -1.7937,0.398599 -1.59439,0 -2.79019,-1.145974 -2.79019,-3.006101 0,-1.677436 0.9965,-3.039318 2.84002,-3.039318 0.7972,0 1.34527,0.182691 1.69404,0.38199 l 0.33217,-1.129364 c -0.3986,-0.199299 -1.16258,-0.415207 -2.02621,-0.415207 -2.62411,0 -4.31816,1.793698 -4.31816,4.268332 0,2.458025 1.57779,4.102249 4.0026,4.102249 1.07954,0 1.92656,-0.265733 2.30855,-0.465032 l -0.24912,-1.096148"
         style="letter-spacing:-0.23999999px;font-family:Myriad Pro;-inkscape-font-specification:Myriad Pro"
         id="path3036"
         inkscape:connector-curvature="0" />
      <path
         d="m 184.91351,26.138321 0,-8.038415 -1.46153,0 0,8.038415 1.46153,0 m -0.73077,-11.210599 c -0.53146,0 -0.91346,0.398599 -0.91346,0.913456 0,0.498248 0.36539,0.896848 0.88024,0.896848 0.58129,0 0.94668,-0.3986 0.93007,-0.896848 0,-0.514857 -0.34878,-0.913456 -0.89685,-0.913456"
         style="letter-spacing:-0.23999999px;font-family:Myriad Pro;-inkscape-font-specification:Myriad Pro"
         id="path3038"
         inkscape:connector-curvature="0" />
      <path
         d="m 193.56518,22.384846 c 0.0166,-0.149474 0.0498,-0.381991 0.0498,-0.68094 0,-1.478137 -0.69755,-3.786691 -3.32166,-3.786691 -2.34177,0 -3.77008,1.909956 -3.77008,4.334765 0,2.424808 1.47814,4.052424 3.95277,4.052424 1.27884,0 2.15908,-0.265733 2.67394,-0.498249 l -0.24913,-1.046323 c -0.54807,0.232516 -1.17919,0.415208 -2.22551,0.415208 -1.46153,0 -2.72376,-0.813809 -2.75697,-2.790194 l 5.64682,0 m -5.63022,-1.046322 c 0.11626,-1.013105 0.76399,-2.374987 2.24212,-2.374987 1.64422,0 2.04282,1.444923 2.02622,2.374987 l -4.26834,0"
         style="letter-spacing:-0.23999999px;font-family:Myriad Pro;-inkscape-font-specification:Myriad Pro"
         id="path3040"
         inkscape:connector-curvature="0" />
      <path
         d="m 195.20114,26.138321 1.46153,0 0,-4.833014 c 0,-0.249124 0.0332,-0.498249 0.0996,-0.68094 0.24912,-0.813806 0.9965,-1.494747 1.95978,-1.494747 1.37848,0 1.86012,1.079541 1.86012,2.374986 l 0,4.633715 1.46153,0 0,-4.799797 c 0,-2.756975 -1.72726,-3.421309 -2.84001,-3.421309 -1.32867,0 -2.25873,0.747374 -2.65733,1.511355 l -0.0332,0 -0.083,-1.328664 -1.29545,0 c 0.0498,0.664331 0.0664,1.345273 0.0664,2.175687 l 0,5.862728"
         style="letter-spacing:-0.23999999px;font-family:Myriad Pro;-inkscape-font-specification:Myriad Pro"
         id="path3042"
         inkscape:connector-curvature="0" />
      <path
         d="m 209.65429,24.743224 c -0.41521,0.182691 -0.96329,0.398599 -1.7937,0.398599 -1.59439,0 -2.79019,-1.145974 -2.79019,-3.006101 0,-1.677436 0.9965,-3.039318 2.84002,-3.039318 0.79719,0 1.34527,0.182691 1.69404,0.38199 l 0.33217,-1.129364 c -0.3986,-0.199299 -1.16258,-0.415207 -2.02621,-0.415207 -2.62411,0 -4.31816,1.793698 -4.31816,4.268332 0,2.458025 1.57779,4.102249 4.0026,4.102249 1.07954,0 1.92656,-0.265733 2.30855,-0.465032 l -0.24912,-1.096148"
         style="letter-spacing:-0.23999999px;font-family:Myriad Pro;-inkscape-font-specification:Myriad Pro"
         id="path3044"
         inkscape:connector-curvature="0" />
      <path
         d="m 217.72518,22.384846 c 0.0166,-0.149474 0.0498,-0.381991 0.0498,-0.68094 0,-1.478137 -0.69755,-3.786691 -3.32165,-3.786691 -2.34177,0 -3.77009,1.909956 -3.77009,4.334765 0,2.424808 1.47814,4.052424 3.95278,4.052424 1.27883,0 2.15908,-0.265733 2.67393,-0.498249 l -0.24912,-1.046323 c -0.54808,0.232516 -1.17919,0.415208 -2.22551,0.415208 -1.46153,0 -2.72376,-0.813809 -2.75698,-2.790194 l 5.64682,0 m -5.63021,-1.046322 c 0.11626,-1.013105 0.76398,-2.374987 2.24212,-2.374987 1.64422,0 2.04282,1.444923 2.02621,2.374987 l -4.26833,0"
         style="letter-spacing:-0.23999999px;font-family:Myriad Pro;-inkscape-font-specification:Myriad Pro"
         id="path3046"
         inkscape:connector-curvature="0" />
    </g>
  </g>
</svg>
